<svg width="24" height="24" viewBox="0 0 24 24" fill="none" xmlns="http://www.w3.org/2000/svg">
<mask id="mask0" mask-type="alpha" maskUnits="userSpaceOnUse" x="2" y="2" width="20" height="20">
<path d="M15.7 7.4C16.915 7.4 17.9 6.41503 17.9 5.2C17.9 3.98497 16.915 3 15.7 3C14.485 3 13.5 3.98497 13.5 5.2C13.5 6.41503 14.485 7.4 15.7 7.4Z" fill="black"/>
<path d="M15.7 14.2C16.915 14.2 17.9 13.215 17.9 12C17.9 10.785 16.915 9.8 15.7 9.8C14.485 9.8 13.5 10.785 13.5 12C13.5 13.215 14.485 14.2 15.7 14.2Z" fill="black"/>
<path d="M15.7 21C16.915 21 17.9 20.015 17.9 18.8C17.9 17.585 16.915 16.6 15.7 16.6C14.485 16.6 13.5 17.585 13.5 18.8C13.5 20.015 14.485 21 15.7 21Z" fill="black"/>
<path d="M8.2 7.4C9.41503 7.4 10.4 6.41503 10.4 5.2C10.4 3.98497 9.41503 3 8.2 3C6.98497 3 6 3.98497 6 5.2C6 6.41503 6.98497 7.4 8.2 7.4Z" fill="black"/>
<path d="M8.2 14.2C9.41503 14.2 10.4 13.215 10.4 12C10.4 10.785 9.41503 9.8 8.2 9.8C6.98497 9.8 6 10.785 6 12C6 13.215 6.98497 14.2 8.2 14.2Z" fill="black"/>
<path d="M8.2 21C9.41503 21 10.4 20.015 10.4 18.8C10.4 17.585 9.41503 16.6 8.2 16.6C6.98497 16.6 6 17.585 6 18.8C6 20.015 6.98497 21 8.2 21Z" fill="black"/>
</mask>
<g mask="url(#mask0)">
<rect width="24" height="24" fill="#7D7D7D"/>
</g>
</svg>
